<?xml version="1.0" standalone="no"?>
<!DOCTYPE svg PUBLIC "-//W3C//DTD SVG 20010904//EN"
 "http://www.w3.org/TR/2001/REC-SVG-20010904/DTD/svg10.dtd">
<svg version="1.0" xmlns="http://www.w3.org/2000/svg"
 width="320.000000pt" height="205.000000pt" viewBox="0 0 320.000000 205.000000"
 preserveAspectRatio="xMidYMid meet">

<g transform="translate(0.000000,205.000000) scale(0.100000,-0.100000)"
fill="#000000" stroke="none">
<path d="M0 1025 l0 -1025 1600 0 1600 0 0 1025 0 1025 -1600 0 -1600 0 0
-1025z m1597 499 c-3 -3 -12 -4 -19 -1 -8 3 -5 6 6 6 11 1 17 -2 13 -5z m98
-37 c43 -42 43 -42 32 -85 -6 -23 -21 -54 -34 -69 l-23 -28 5 30 c3 17 2 24
-1 18 -9 -20 -35 -16 -27 3 5 13 2 15 -15 10 -24 -8 -41 12 -21 25 20 12 2 11
-22 -1 -16 -9 -19 -7 -19 12 0 13 -3 33 -6 46 -6 21 -4 22 20 16 23 -5 26 -3
26 19 0 21 20 45 39 47 1 0 22 -19 46 -43z m-145 23 c0 -5 -4 -10 -10 -10 -5
0 -10 5 -10 10 0 6 5 10 10 10 6 0 10 -4 10 -10z m210 -10 c0 -5 -7 -10 -16
-10 -8 0 -12 5 -9 10 3 6 10 10 16 10 5 0 9 -4 9 -10z m-160 -4 c0 -3 -4 -8
-10 -11 -5 -3 -10 -1 -10 4 0 6 5 11 10 11 6 0 10 -2 10 -4z m218 -65 c43 -23
92 -41 110 -41 18 0 19 -3 11 -35 -6 -19 -8 -39 -5 -44 3 -5 -1 -11 -9 -15 -8
-3 -15 -15 -15 -27 0 -12 -16 -39 -35 -60 -19 -22 -35 -44 -35 -49 0 -20 -20
-9 -35 19 -9 19 -11 32 -5 36 15 9 7 78 -13 108 -13 21 -15 32 -7 46 5 11 10
31 10 45 0 29 2 30 28 17z m182 -61 c0 -5 -2 -10 -4 -10 -3 0 -8 5 -11 10 -3
6 -1 10 4 10 6 0 11 -4 11 -10z m128 -37 l30 -17 -24 -19 c-14 -10 -42 -21
-64 -23 -35 -4 -40 -3 -40 16 0 57 41 76 98 43z m-154 -25 c-33 -39 -42 -48
-49 -48 -3 0 2 11 11 25 9 14 13 25 10 25 -4 0 -4 5 -1 10 3 6 16 10 27 10 21
0 21 0 2 -22z m76 -64 c0 -8 -4 -12 -10 -9 -6 4 -10 -16 -10 -53 0 -58 -1 -60
-30 -71 -32 -11 -33 -10 -24 13 3 9 11 13 17 9 6 -4 8 2 4 16 -8 31 2 58 14
39 6 -9 9 -3 9 18 0 16 5 35 12 42 16 16 18 15 18 -4z m-70 2 c0 -3 -4 -8 -10
-11 -5 -3 -10 -1 -10 4 0 6 5 11 10 11 6 0 10 -2 10 -4z m-27 -55 c-3 -12 1
-21 10 -23 11 -2 12 -9 6 -27 -9 -23 -10 -23 -23 -5 -8 10 -12 24 -10 31 11
37 14 43 18 43 2 0 2 -9 -1 -19z m-143 -46 c0 -7 -6 -15 -14 -18 -9 -4 -13 2
-13 18 0 16 4 22 13 18 8 -3 14 -11 14 -18z m580 6 c17 -32 12 -50 -16 -57
-37 -9 -50 8 -34 45 14 35 35 40 50 12z m38 -63 c18 -18 16 -59 -3 -52 -8 4
-15 1 -15 -5 0 -6 -8 -12 -17 -12 -10 -1 -4 -5 12 -9 23 -6 25 -8 8 -9 -12 0
-26 -8 -31 -17 -12 -21 -20 -20 -43 10 -21 26 -25 46 -9 46 6 0 10 -4 10 -10
0 -5 14 4 30 20 17 16 30 34 30 40 0 14 13 13 28 -2z m-483 -18 c3 -5 1 -10
-4 -10 -6 0 -11 5 -11 10 0 6 2 10 4 10 3 0 8 -4 11 -10z m70 -10 c-3 -5 -12
-10 -18 -10 -7 0 -6 4 3 10 19 12 23 12 15 0z m465 -20 c0 -21 -15 -27 -25
-10 -7 12 2 30 16 30 5 0 9 -9 9 -20z m-543 -12 c-3 -8 -6 -5 -6 6 -1 11 2 17
5 13 3 -3 4 -12 1 -19z m-27 -58 c0 -5 -5 -10 -11 -10 -5 0 -7 5 -4 10 3 6 8
10 11 10 2 0 4 -4 4 -10z m572 -12 c-3 -13 -10 -26 -16 -30 -18 -12 -26 2 -14
27 14 32 38 34 30 3z m55 0 c-3 -8 -6 -5 -6 6 -1 11 2 17 5 13 3 -3 4 -12 1
-19z m-580 -34 c3 -13 -25 -49 -33 -41 -10 10 6 59 18 55 7 -3 13 -8 15 -14z
m-47 -36 c0 -5 -4 -8 -10 -8 -5 0 -10 10 -10 23 0 18 2 19 10 7 5 -8 10 -18
10 -22z m575 13 c-3 -6 -11 -9 -16 -6 -5 4 -9 1 -9 -6 0 -7 -3 -9 -7 -5 -5 4
1 14 11 22 21 15 32 12 21 -5z m22 -19 c-4 -47 -13 -63 -32 -55 -8 3 -15 0
-15 -6 0 -6 6 -11 13 -11 7 0 4 -7 -7 -15 -27 -20 -41 -19 -25 2 13 17 13 17
-12 1 -26 -16 -39 -15 -39 4 0 5 5 6 10 3 6 -3 10 -1 10 5 0 6 8 14 18 17 38
14 72 47 72 70 0 13 2 23 6 23 3 0 3 -17 1 -38z m-518 -10 c8 -25 6 -30 -5
-25 -8 3 -14 19 -14 36 0 36 7 32 19 -11z m-42 -134 c-3 -7 -5 -2 -5 12 0 14
2 19 5 13 2 -7 2 -19 0 -25z m125 -110 c-17 -17 -15 -56 4 -60 12 -2 6 -15
-26 -56 -23 -29 -45 -51 -48 -48 -3 3 1 13 8 21 8 9 14 28 15 42 0 15 6 28 13
31 7 2 10 13 6 26 -5 21 16 56 34 56 3 0 1 -5 -6 -12z m197 -61 c2 -15 -52
-57 -72 -57 -19 0 -20 -9 -2 -52 6 -14 2 -18 -15 -18 -14 0 -24 8 -27 21 -3
12 -11 18 -19 15 -44 -18 -45 -15 -9 24 22 23 60 57 85 76 39 29 46 31 52 16
4 -9 7 -21 7 -25z m-562 -3 c-3 -3 -12 -4 -19 -1 -8 3 -5 6 6 6 11 1 17 -2 13
-5z m7 -95 c-8 -13 -24 -1 -24 18 0 13 3 13 15 3 8 -7 12 -16 9 -21z m296
-116 c-11 -17 -11 -17 -6 0 3 10 6 24 7 30 0 9 2 9 5 0 3 -7 0 -20 -6 -30z
m-318 -147 c-6 -11 -13 -34 -17 -49 -6 -32 -25 -27 -25 6 -1 35 -18 -2 -24
-49 -5 -35 -2 -42 22 -57 22 -14 24 -17 8 -17 -50 0 -71 63 -44 136 11 31 38
55 38 35 0 -5 -6 -12 -12 -14 -9 -4 -9 -6 -1 -6 6 -1 21 16 34 37 18 30 23 33
27 18 2 -10 -1 -28 -6 -40z m-21 -129 c-13 -13 -26 -3 -16 12 3 6 11 8 17 5 6
-4 6 -10 -1 -17z"/>
</g>
</svg>
