<?xml version="1.0" standalone="no"?>
<!DOCTYPE svg PUBLIC "-//W3C//DTD SVG 20010904//EN"
 "http://www.w3.org/TR/2001/REC-SVG-20010904/DTD/svg10.dtd">
<svg version="1.0" xmlns="http://www.w3.org/2000/svg"
 width="320.000000pt" height="213.000000pt" viewBox="0 0 320.000000 213.000000"
 preserveAspectRatio="xMidYMid meet">

<g transform="translate(0.000000,213.000000) scale(0.100000,-0.100000)"
fill="#000000" stroke="none">
<path d="M852 2105 c-11 -14 -25 -47 -32 -74 -8 -36 -18 -51 -36 -60 -14 -6
-29 -9 -34 -6 -15 9 -77 -24 -83 -45 -5 -19 3 -24 31 -21 6 1 12 -3 12 -9 0
-5 -7 -10 -15 -10 -13 0 -13 -4 2 -27 17 -26 17 -27 -1 -20 -13 5 -17 3 -13
-7 4 -9 -3 -16 -18 -20 -14 -4 -33 -16 -44 -27 -16 -18 -22 -19 -40 -7 -12 7
-21 16 -21 21 0 14 -52 28 -65 17 -16 -13 -28 0 -14 16 8 9 5 11 -10 7 -21 -5
-30 -33 -11 -33 6 0 10 -4 10 -9 0 -5 -26 -13 -57 -17 -50 -6 -62 -4 -104 19
-25 15 -49 23 -53 20 -4 -4 -9 3 -13 15 -3 12 -13 22 -22 23 -96 5 -163 3
-167 -3 -8 -12 -34 -10 -34 3 0 5 4 8 8 5 13 -8 49 38 44 54 -6 21 -53 61 -63
54 -5 -3 -9 -440 -9 -985 l0 -979 1600 0 1600 0 0 1065 0 1065 -433 -1 c-237
0 -426 -3 -419 -6 6 -2 12 -18 12 -34 0 -38 -29 -29 -37 12 -4 21 -11 29 -26
29 -20 0 -20 -1 -3 -13 16 -12 16 -14 2 -26 -8 -7 -20 -10 -26 -6 -5 3 -10 1
-10 -6 0 -6 -8 -1 -19 12 l-18 23 -23 -22 c-13 -12 -26 -19 -29 -17 -2 3 5 12
17 21 12 8 22 19 22 25 0 5 -72 9 -175 9 -155 0 -175 -2 -175 -16 0 -12 3 -14
13 -6 22 19 107 6 124 -18 9 -13 21 -19 33 -15 12 4 23 -3 34 -20 23 -35 83
-35 116 0 13 14 32 25 42 25 15 0 17 -5 12 -27 -4 -16 -13 -32 -21 -36 -8 -5
-12 -16 -9 -25 4 -12 -6 -25 -32 -42 -20 -14 -42 -32 -49 -40 -10 -13 -14 -12
-34 5 -12 11 -19 14 -14 6 6 -11 3 -13 -13 -9 -15 4 -22 2 -22 -8 0 -8 -4 -14
-10 -14 -5 0 -10 7 -10 15 0 8 -8 19 -18 24 -13 7 -23 3 -43 -17 -14 -15 -29
-35 -32 -44 -9 -24 -23 -23 -30 3 -5 17 -10 20 -24 13 -10 -5 -42 -8 -70 -7
-48 1 -53 -1 -53 -20 0 -15 -3 -18 -11 -10 -12 12 -49 6 -49 -9 0 -5 -5 -6
-11 -3 -7 5 -4 14 7 26 16 18 16 19 -3 19 -11 0 -37 -13 -59 -30 -40 -30 -64
-38 -64 -20 0 15 -27 12 -65 -6 -24 -11 -42 -13 -67 -7 -18 5 -58 5 -88 0 -78
-12 -183 -14 -197 -3 -8 5 -19 3 -30 -5 -21 -18 -78 -23 -178 -15 -69 5 -68 4
-61 21 3 9 0 15 -9 15 -8 0 -15 -7 -15 -16 0 -8 -4 -12 -10 -9 -5 3 -19 1 -30
-5 -14 -7 -26 -8 -38 -1 -9 6 -13 11 -8 11 5 0 3 7 -4 15 -7 8 -11 15 -9 16 2
0 13 2 24 3 11 1 37 6 57 10 34 6 37 9 25 26 -6 11 -20 20 -29 20 -10 0 -18 5
-18 12 0 6 -7 3 -15 -8 -18 -24 -19 -15 -1 27 17 41 56 81 56 58 0 -8 -5 -20
-12 -27 -9 -9 -6 -13 12 -20 18 -7 28 -3 47 16 14 14 22 31 18 40 -4 12 -3 13
10 2 8 -7 15 -19 15 -26 0 -8 6 -13 13 -11 6 1 11 -6 9 -15 -2 -11 4 -18 15
-19 10 -1 25 -2 33 -3 8 0 20 8 25 18 16 30 35 31 35 2 0 -13 -6 -28 -12 -33
-8 -5 9 -10 42 -14 30 -3 57 -3 60 0 12 14 52 31 60 26 9 -6 80 25 80 34 -1
14 -17 29 -35 33 -11 2 -19 9 -18 15 1 5 -11 23 -27 38 -43 41 -37 48 21 25
28 -11 47 -15 43 -9 -5 9 1 10 20 5 15 -4 26 -2 26 4 0 5 6 10 13 10 6 1 26 7
42 14 29 13 29 13 -26 13 -30 0 -60 3 -66 6 -6 4 -18 4 -27 1 -9 -3 -16 -1
-16 5 0 8 -58 11 -189 11 l-190 0 -19 -25z m1625 -7 c-3 -8 -6 -5 -6 6 -1 11
2 17 5 13 3 -3 4 -12 1 -19z m-1459 -107 c5 -15 6 -34 2 -41 -10 -15 -16 -5
-24 43 -8 45 6 43 22 -2z m-38 -1 c0 -5 -5 -10 -11 -10 -5 0 -7 5 -4 10 3 6 8
10 11 10 2 0 4 -4 4 -10z m150 -20 c0 -5 -4 -10 -9 -10 -6 0 -13 5 -16 10 -3
6 1 10 9 10 9 0 16 -4 16 -10z m520 -130 c0 -5 -4 -10 -10 -10 -5 0 -10 5 -10
10 0 6 5 10 10 10 6 0 10 -4 10 -10z m617 -57 c-9 -9 -19 -14 -23 -11 -10 10
6 28 24 28 15 0 15 -1 -1 -17z m-301 -45 c4 -7 3 -8 -5 -4 -6 4 -14 0 -17 -8
-3 -9 -11 -13 -17 -9 -6 4 -3 11 8 20 23 16 22 16 31 1z m-86 -27 c0 -5 10
-12 23 -16 21 -6 21 -7 -7 -15 -15 -5 -37 -17 -48 -27 -19 -17 -19 -17 -12 12
4 17 11 36 17 43 11 14 27 16 27 3z m-130 -9 c0 -4 -8 -15 -19 -24 -10 -8 -20
-20 -22 -24 -2 -5 -16 -19 -30 -32 l-26 -23 4 25 c3 15 11 26 18 26 7 0 23 13
36 30 23 29 39 38 39 22z m-260 -63 c0 -5 -10 -9 -21 -9 -18 0 -19 2 -9 15 12
15 30 12 30 -6z m25 11 c3 -5 1 -10 -4 -10 -6 0 -11 5 -11 10 0 6 2 10 4 10 3
0 8 -4 11 -10z m1482 -48 c-23 -21 -67 -58 -97 -83 -62 -52 -53 -50 -380 -94
-102 -13 -201 -27 -220 -30 l-35 -6 25 18 c13 10 63 45 110 79 l85 61 230 37
c127 21 241 40 254 43 18 5 22 3 16 -7 -5 -8 1 -7 16 3 42 30 40 18 -4 -21z
m-1556 5 c-1 -12 -15 -9 -19 4 -3 6 1 10 8 8 6 -3 11 -8 11 -12z m-45 -132
c14 -13 13 -15 -8 -11 -13 3 -24 5 -26 5 -5 1 9 21 14 21 3 0 12 -7 20 -15z
m-158 -50 l-10 -55 37 -35 c43 -40 42 -40 61 -20 9 8 22 15 31 15 18 0 -27
-38 -66 -57 l-26 -11 33 -1 c17 -1 32 4 32 9 0 6 10 10 23 9 21 0 21 -1 -3
-11 l-25 -10 26 -10 c15 -5 29 -18 32 -28 5 -18 29 -30 26 -12 -4 21 4 33 31
47 35 18 46 19 33 3 -6 -7 -9 -23 -8 -36 1 -17 -2 -21 -17 -16 -10 3 -18 1
-18 -5 0 -6 4 -11 10 -11 5 0 7 -6 4 -14 -3 -8 -1 -17 5 -21 6 -3 11 -10 11
-15 0 -6 -15 -1 -34 9 -19 11 -37 16 -42 11 -5 -5 -16 -5 -24 0 -13 8 -12 10
4 10 15 0 16 3 6 15 -7 8 -22 15 -33 15 -19 0 -19 1 -3 19 15 17 15 19 1 25
-9 3 -28 6 -41 6 -13 0 -33 9 -44 20 -11 11 -29 20 -39 20 -11 0 -21 8 -24 18
-2 10 -8 1 -16 -25 -6 -24 -16 -43 -21 -43 -13 0 -13 1 6 45 17 41 14 47 -33
63 -25 8 -34 8 -44 -4 -17 -21 -31 -17 -19 6 6 10 33 27 62 37 33 12 61 31 82
55 17 21 34 38 37 38 3 0 2 -25 -3 -55z m188 -119 c-14 -24 -22 -46 -19 -50 3
-3 1 -6 -5 -6 -7 0 -12 2 -12 5 0 8 31 68 42 83 22 26 19 10 -6 -32z m33 -29
c-30 -24 -36 -14 -13 28 18 34 19 34 27 13 6 -18 3 -27 -14 -41z m1489 -7 c2
-4 12 -6 22 -3 11 3 20 0 20 -6 0 -6 5 -11 11 -11 5 0 7 5 4 10 -3 6 1 10 10
10 9 0 18 -12 22 -31 4 -24 10 -29 24 -26 14 4 19 0 19 -14 0 -20 -15 -26 -25
-9 -3 6 -11 10 -16 10 -6 0 -8 -4 -5 -9 3 -5 -12 -11 -33 -13 -22 -2 -37 0
-35 4 3 5 1 8 -5 8 -5 0 -11 -4 -13 -9 -1 -5 -34 -12 -73 -16 -110 -11 -133
-11 -129 0 3 7 -10 9 -34 7 -34 -3 -40 -1 -45 20 -11 38 -8 76 6 80 6 3 37 6
67 7 30 1 56 4 58 5 6 7 147 -6 150 -14z m-1928 -25 c0 -8 -7 -15 -15 -15 -13
0 -14 3 -3 15 16 18 18 18 18 0z m1500 -34 c0 -48 -10 -64 -25 -41 -3 6 -18 7
-32 4 -16 -4 -28 -2 -34 7 -6 11 -9 10 -15 -4 -9 -25 -83 -24 -86 1 -1 19 -1
53 1 64 1 7 27 10 139 16 l52 3 0 -50z m580 39 c0 -5 -5 -10 -11 -10 -5 0 -7
5 -4 10 3 6 8 10 11 10 2 0 4 -4 4 -10z m37 -12 c-2 -25 -20 -48 -36 -48 -17
0 -13 17 5 24 9 4 14 13 10 22 -3 8 -2 12 4 9 6 -3 10 -1 10 4 0 6 2 11 5 11
3 0 4 -10 2 -22z m-2244 -84 c-10 -7 -13 -13 -8 -13 6 -1 21 8 35 19 33 25 72
25 88 0 14 -22 9 -25 -18 -10 -13 7 -19 6 -24 -6 -3 -9 -3 -21 1 -27 4 -7 0
-8 -13 -2 -10 4 -34 10 -51 13 -23 3 -33 9 -33 22 0 19 18 31 33 23 5 -3 0
-11 -10 -19z m987 -24 c0 -5 -5 -10 -11 -10 -5 0 -7 5 -4 10 3 6 8 10 11 10 2
0 4 -4 4 -10z m185 0 c-3 -5 -10 -10 -16 -10 -5 0 -9 5 -9 10 0 6 7 10 16 10
8 0 12 -4 9 -10z m-292 -23 c20 -3 37 0 37 4 0 5 8 9 18 8 11 0 12 -2 4 -6
-16 -6 14 -32 38 -33 13 0 13 1 0 10 -12 8 -11 10 8 10 13 0 22 -6 22 -15 0
-20 -71 -20 -110 0 -20 10 -30 11 -32 3 -3 -8 -9 -8 -25 0 -16 9 -24 8 -33 -3
-9 -11 -16 -12 -31 -2 -14 9 -22 9 -27 1 -9 -14 -112 -28 -112 -15 0 13 30 22
53 15 16 -5 19 -3 14 10 -4 10 -3 15 1 13 4 -3 16 -1 27 4 18 8 40 7 148 -4z
m-285 -20 c6 0 12 -5 13 -11 0 -6 4 -2 9 9 8 18 9 17 9 -8 1 -16 -3 -26 -8
-23 -4 3 -15 0 -24 -7 -14 -10 -15 -18 -5 -49 6 -21 15 -35 19 -32 4 2 11 0
14 -6 4 -6 27 -8 58 -5 l52 5 -35 -14 c-19 -8 -51 -15 -71 -15 l-36 -1 2 -87
c2 -49 1 -103 -2 -121 l-5 -32 -27 26 c-22 22 -32 25 -66 21 -22 -3 -47 -7
-55 -9 -8 -3 -12 -3 -7 -1 15 9 6 21 -13 16 -19 -5 -20 -2 -16 33 3 22 8 68
11 104 4 36 11 70 16 76 5 7 9 16 8 20 -1 5 1 18 5 29 4 11 13 32 18 48 6 15
20 29 32 32 11 2 30 6 41 8 11 3 27 2 35 0 8 -3 21 -6 28 -6z m732 -1 c0 -3
-4 -8 -10 -11 -5 -3 -10 -1 -10 4 0 6 5 11 10 11 6 0 10 -2 10 -4z m-163 -12
c-3 -3 -12 -4 -19 -1 -8 3 -5 6 6 6 11 1 17 -2 13 -5z m50 0 c-3 -3 -12 -4
-19 -1 -8 3 -5 6 6 6 11 1 17 -2 13 -5z m213 -13 c0 -6 -5 -13 -10 -16 -6 -4
-4 -12 5 -21 25 -26 17 -32 -20 -15 -39 18 -41 23 -19 45 17 18 44 21 44 7z
m-1159 -41 c25 -14 25 -50 -1 -57 -11 -3 -20 -10 -20 -17 0 -6 -5 -3 -11 7 -5
9 -16 17 -24 17 -7 0 -15 6 -18 13 -4 10 -7 10 -18 0 -14 -14 -39 -17 -39 -5
0 7 87 51 103 52 5 0 17 -5 28 -10z m955 -25 c-10 -8 -24 -11 -29 -8 -6 4 -2
10 9 14 31 12 40 9 20 -6z m-371 -25 c18 -8 18 -9 2 -9 -10 -1 -15 -5 -12 -11
3 -5 -1 -10 -9 -10 -9 0 -15 6 -13 12 1 7 -9 14 -23 16 -24 3 -25 3 -5 -12 20
-15 19 -16 -5 -12 -14 3 -28 5 -31 5 -3 1 -6 8 -6 16 0 17 67 20 102 5z m185
-19 l45 -7 -47 -8 c-27 -4 -68 -4 -93 0 -30 4 -45 3 -45 -5 0 -6 -7 -11 -15
-11 -30 0 -9 25 25 31 49 9 78 9 130 0z m-555 -261 c-3 -11 -2 -20 3 -20 8 0
32 -73 32 -98 0 -5 -25 -9 -55 -8 l-55 0 2 39 c1 21 5 40 10 43 4 3 8 14 8 25
0 11 4 17 10 14 6 -3 7 1 4 9 -5 12 1 16 21 16 22 0 25 -3 20 -20z"/>
<path d="M1176 1365 c-3 -9 0 -15 9 -15 16 0 20 16 6 24 -5 3 -11 -1 -15 -9z"/>
<path d="M1460 1070 c0 -5 5 -10 10 -10 6 0 10 5 10 10 0 6 -4 10 -10 10 -5 0
-10 -4 -10 -10z"/>
<path d="M1474 2119 c-4 -8 0 -9 15 -4 13 4 21 2 21 -5 0 -12 50 -59 64 -60 5
0 18 7 28 17 17 15 18 15 18 -9 0 -29 16 -38 66 -38 33 0 45 12 24 25 -12 8
-10 67 4 77 5 3 -45 7 -112 7 -80 1 -123 -2 -128 -10z"/>
<path d="M1425 2101 c-10 -17 12 -21 25 -6 10 12 10 15 -3 15 -9 0 -18 -4 -22
-9z"/>
<path d="M1450 2065 c0 -8 7 -15 15 -15 9 0 12 6 9 15 -4 8 -10 15 -15 15 -5
0 -9 -7 -9 -15z"/>
<path d="M370 1816 c0 -2 7 -6 15 -10 8 -3 15 -1 15 4 0 6 -7 10 -15 10 -8 0
-15 -2 -15 -4z"/>
</g>
</svg>
