<?xml version="1.0" standalone="no"?>
<!DOCTYPE svg PUBLIC "-//W3C//DTD SVG 20010904//EN"
 "http://www.w3.org/TR/2001/REC-SVG-20010904/DTD/svg10.dtd">
<svg version="1.0" xmlns="http://www.w3.org/2000/svg"
 width="500.000000pt" height="500.000000pt" viewBox="0 0 500.000000 500.000000"
 preserveAspectRatio="xMidYMid meet">

<g transform="translate(0.000000,500.000000) scale(0.100000,-0.100000)"
fill="#000000" stroke="none">
<path d="M2084 3284 l-28 -47 23 -18 c33 -27 45 -24 75 21 32 48 32 55 4 74
-34 24 -45 20 -74 -30z"/>
<path d="M3056 3313 c-22 -75 -37 -393 -20 -437 12 -30 24 -4 25 52 0 31 4 80
8 107 6 48 7 49 20 27 7 -13 31 -72 53 -130 71 -187 56 -254 -96 -423 -47 -54
-86 -100 -86 -103 0 -12 27 -5 85 22 111 53 148 97 171 207 27 125 10 299 -46
467 -27 80 -95 228 -104 228 -3 0 -7 -8 -10 -17z"/>
<path d="M1687 3216 c-20 -57 -22 -180 -7 -474 7 -157 12 -189 31 -228 41 -86
117 -92 224 -18 l63 42 11 -71 c15 -94 34 -125 26 -42 -15 153 -22 135 104
258 102 99 247 207 278 207 20 0 41 41 48 93 l7 48 -43 -23 c-46 -24 -101 -28
-190 -13 -55 9 -106 -5 -150 -42 -51 -43 -83 -126 -95 -245 -6 -65 -9 -70 -46
-100 -56 -44 -126 -51 -162 -15 -45 45 -64 161 -67 402 0 83 -4 177 -8 210
l-6 60 -18 -49z m533 -330 c0 -7 -181 -181 -192 -185 -16 -6 -2 84 19 121 21
36 83 67 136 68 20 0 37 -2 37 -4z"/>
<path d="M2745 3225 c-42 -43 -55 -83 -31 -100 9 -7 16 -15 16 -18 0 -3 -28
-16 -62 -29 -53 -19 -59 -23 -35 -26 37 -4 131 40 152 72 20 31 14 56 -15 56
-27 0 -26 13 3 25 22 10 37 55 18 55 -6 0 -26 -16 -46 -35z"/>
<path d="M1483 3145 c-78 -39 -158 -114 -196 -184 -14 -26 -37 -85 -50 -131
l-25 -85 -48 -13 c-71 -18 -113 -8 -151 36 l-32 37 -10 -26 c-5 -14 -12 -46
-16 -70 -5 -37 -2 -49 19 -78 41 -55 37 -121 -13 -198 -48 -74 -134 -146 -195
-163 -38 -10 -52 -10 -83 1 -56 22 -77 57 -76 133 1 123 100 266 267 387 204
148 243 178 279 217 54 61 46 80 -11 24 -26 -26 -103 -85 -172 -131 -182 -123
-234 -165 -283 -229 -137 -181 -156 -452 -36 -515 64 -34 160 -4 230 70 70 73
146 217 170 320 13 55 3 50 124 65 17 3 20 -2 17 -29 -1 -18 2 -33 8 -33 5 0
10 13 10 28 0 36 14 53 75 87 75 42 204 178 247 260 42 82 68 163 68 217 0 33
-3 38 -24 38 -13 0 -54 -16 -93 -35z m41 -104 c10 -15 -55 -101 -124 -162 -71
-64 -151 -121 -158 -114 -3 2 1 24 7 48 20 71 104 164 186 205 65 32 81 37 89
23z"/>
<path d="M4675 2973 c-31 -7 -146 -52 -182 -71 -47 -25 -81 -77 -108 -168
l-25 -80 -63 -22 c-71 -25 -115 -29 -100 -9 15 19 33 78 27 88 -3 5 -26 -13
-52 -39 -54 -55 -120 -78 -198 -69 -71 8 -113 62 -100 131 5 28 15 38 64 64
31 17 76 35 98 41 36 10 44 17 58 52 9 23 14 44 11 47 -3 3 -29 5 -58 3 -28
-1 -80 4 -113 12 -103 24 -176 0 -219 -74 -10 -18 -31 -74 -45 -124 l-26 -90
-84 -57 c-116 -78 -171 -140 -231 -262 -113 -227 -239 -326 -414 -326 -41 0
-75 -4 -75 -10 0 -14 65 -24 155 -25 181 0 235 43 349 277 78 162 95 184 184
234 26 15 59 35 73 45 15 10 29 15 32 12 3 -3 4 -35 1 -72 -4 -48 -3 -62 5
-51 6 8 11 33 11 55 0 79 15 107 92 171 101 84 96 83 94 11 -1 -69 19 -115 65
-149 53 -40 150 -33 221 16 25 16 56 25 109 30 41 4 84 10 97 13 18 4 22 1 23
-18 l1 -24 9 25 c7 18 33 36 90 63 57 27 97 55 137 96 59 59 119 165 129 227
6 35 3 37 -42 27z m-827 -109 c30 -9 28 -19 -10 -41 -18 -11 -59 -41 -90 -66
-32 -26 -60 -47 -63 -47 -11 0 -4 29 20 77 34 67 82 93 143 77z m770 -38 c-70
-64 -212 -155 -224 -144 -10 11 15 74 39 95 38 36 167 91 212 92 16 0 10 -9
-27 -43z"/>
<path d="M2696 2881 c-14 -32 -26 -67 -26 -77 1 -18 1 -18 16 1 15 20 15 20
30 1 19 -26 18 -96 -2 -124 -13 -19 -24 -22 -77 -22 -206 -1 -437 -139 -437
-262 0 -33 7 -46 48 -87 78 -78 134 -95 322 -95 138 0 161 2 212 22 31 13 76
40 100 62 l43 39 -295 1 c-373 0 -413 10 -355 86 53 70 174 114 313 114 70 0
75 2 103 33 53 57 89 146 89 221 0 69 -23 146 -45 146 -7 0 -24 -26 -39 -59z"/>
<path d="M940 1633 c-49 -18 -76 -70 -60 -118 8 -26 25 -40 83 -71 54 -29 73
-45 75 -63 4 -28 -12 -41 -50 -41 -27 0 -42 11 -81 59 -10 12 -22 19 -27 16
-13 -8 -13 -61 0 -85 13 -24 105 -45 155 -36 50 10 95 55 95 96 0 49 -16 68
-91 105 -73 37 -89 57 -72 84 16 24 70 17 102 -13 35 -34 51 -33 51 2 0 53
-21 68 -97 69 -37 1 -75 -1 -83 -4z"/>
<path d="M1428 1629 c-31 -12 -36 -30 -13 -49 22 -19 22 -216 -1 -241 -9 -10
-13 -23 -9 -28 8 -13 112 -15 119 -2 3 5 -1 22 -9 37 -16 31 -12 98 7 122 15
18 46 15 58 -7 16 -32 13 -112 -7 -126 -27 -20 -5 -35 52 -35 55 0 74 11 57
33 -5 7 -12 43 -15 81 -10 109 -51 147 -123 112 -19 -9 -36 -16 -38 -16 -2 0
-2 28 -2 63 1 59 0 62 -24 64 -14 1 -37 -3 -52 -8z"/>
<path d="M2794 1626 c-19 -15 -19 -15 1 -30 18 -13 20 -26 20 -124 0 -93 -3
-113 -18 -130 -28 -31 -13 -42 58 -42 68 0 86 11 62 38 -18 21 -30 79 -17 87
5 3 13 -1 17 -9 5 -9 30 -38 57 -66 43 -45 52 -50 91 -50 49 0 69 18 40 34
-25 14 -121 115 -136 143 -11 20 -7 26 31 63 24 23 54 46 67 51 26 10 31 34 7
43 -24 9 -87 7 -104 -4 -12 -8 -13 -13 -2 -30 11 -17 8 -25 -24 -60 -20 -22
-40 -37 -45 -34 -14 9 -1 78 18 92 17 13 17 14 -1 28 -11 8 -38 14 -61 14 -23
0 -50 -6 -61 -14z"/>
<path d="M3153 1625 c-35 -15 -42 -32 -18 -41 12 -5 15 -29 15 -124 0 -69 -4
-121 -10 -125 -5 -3 -10 -13 -10 -21 0 -11 14 -14 59 -14 64 0 80 10 56 33
-17 18 -20 98 -5 128 13 23 55 25 64 3 10 -26 7 -122 -4 -129 -5 -3 -10 -13
-10 -21 0 -11 14 -14 59 -14 63 0 86 14 58 35 -13 9 -17 28 -17 76 0 83 -15
111 -63 123 -32 8 -42 6 -67 -13 l-30 -22 0 71 c0 66 -1 70 -22 70 -13 -1 -38
-7 -55 -15z"/>
<path d="M1213 1521 c-41 -26 -55 -52 -56 -108 0 -55 26 -93 78 -111 44 -15
102 -3 129 27 24 26 13 43 -20 31 -37 -14 -70 -12 -88 6 -32 32 -20 43 52 46
l67 3 3 31 c7 74 -94 120 -165 75z m91 -37 c11 -29 6 -34 -29 -34 -19 0 -35 4
-35 9 0 24 14 41 35 41 13 0 26 -7 29 -16z"/>
<path d="M1738 1523 c-42 -17 -47 -27 -21 -41 25 -14 31 -116 8 -142 -26 -28
-10 -40 55 -40 65 0 79 10 53 36 -13 12 -17 31 -15 72 1 31 5 58 7 61 3 2 16
-2 30 -9 30 -16 55 0 55 36 0 34 -35 50 -65 30 -30 -20 -35 -20 -35 -1 0 19
-24 18 -72 -2z"/>
<path d="M1963 1520 c-38 -23 -45 -60 -12 -60 11 0 32 9 46 20 31 24 49 25 57
4 14 -37 7 -44 -41 -44 -70 -1 -111 -40 -97 -95 11 -44 91 -64 131 -33 7 6 20
4 35 -5 16 -11 30 -12 46 -6 30 11 40 39 19 51 -14 7 -17 25 -17 83 0 65 -3
76 -22 89 -32 22 -106 20 -145 -4z m97 -132 c0 -33 -14 -51 -36 -46 -23 4 -32
47 -12 59 25 16 48 10 48 -13z"/>
<path d="M2430 1533 c-33 -13 -69 -57 -75 -93 -8 -47 14 -102 50 -126 53 -35
165 -10 165 37 0 16 -4 17 -26 9 -56 -22 -104 -7 -104 32 0 14 11 18 68 20
l67 3 3 31 c5 48 -32 85 -88 90 -25 2 -52 1 -60 -3z m74 -55 c14 -23 5 -30
-37 -26 -31 3 -34 5 -26 26 10 27 46 27 63 0z"/>
<path d="M3483 1520 c-38 -23 -45 -60 -12 -60 11 0 32 9 46 20 31 24 49 25 57
4 14 -37 7 -44 -41 -44 -70 -1 -111 -40 -97 -95 11 -44 91 -64 131 -33 7 6 20
4 35 -5 16 -11 30 -12 46 -6 30 11 40 39 19 51 -14 7 -17 25 -17 83 0 65 -3
76 -22 89 -32 22 -106 20 -145 -4z m97 -132 c0 -33 -14 -51 -36 -46 -23 4 -32
47 -12 59 25 16 48 10 48 -13z"/>
<path d="M3760 1533 c-26 -10 -50 -36 -50 -55 0 -25 42 -24 65 2 31 35 65 21
65 -26 0 -10 -14 -14 -50 -14 -41 0 -56 -5 -75 -25 -65 -64 14 -152 98 -110
27 14 32 13 47 0 13 -12 23 -13 44 -5 33 12 45 39 23 52 -13 7 -17 24 -17 78
0 89 -17 110 -87 109 -27 0 -55 -3 -63 -6z m78 -143 c1 -9 -4 -24 -12 -35 -12
-16 -19 -18 -32 -9 -25 15 -27 29 -8 48 19 20 48 17 52 -4z"/>
<path d="M3987 1529 c-23 -14 -37 -51 -30 -78 3 -12 30 -38 59 -56 30 -19 54
-42 54 -50 0 -24 -44 -18 -70 10 -13 14 -29 25 -37 25 -19 0 -16 -47 5 -68 13
-13 31 -17 72 -15 45 1 59 6 77 28 42 49 28 87 -48 126 -41 20 -53 49 -21 49
11 0 27 -9 37 -20 37 -41 62 -9 29 38 -12 17 -25 22 -62 22 -26 0 -55 -5 -65
-11z"/>
<path d="M2674 1452 c-44 -2 -53 -6 -58 -25 -10 -37 -8 -38 57 -35 57 3 62 5
65 27 5 32 -4 36 -64 33z"/>
<path d="M2191 1428 c-13 -33 -6 -38 55 -38 49 0 55 2 64 26 6 14 10 27 10 30
0 2 -27 4 -60 4 -54 0 -62 -3 -69 -22z"/>
</g>
</svg>
